<?xml version="1.0" encoding="UTF-8" standalone="no"?>
<svg
   xmlns:dc="http://purl.org/dc/elements/1.1/"
   xmlns:cc="http://creativecommons.org/ns#"
   xmlns:rdf="http://www.w3.org/1999/02/22-rdf-syntax-ns#"
   xmlns:svg="http://www.w3.org/2000/svg"
   xmlns="http://www.w3.org/2000/svg"
   id="svg6"
   version="1.1"
   fill="none"
   viewBox="0 0 32 29"
   height="29"
   width="32">
  <metadata
     id="metadata12">
    <rdf:RDF>
      <cc:Work
         rdf:about="">
        <dc:format>image/svg+xml</dc:format>
        <dc:type
           rdf:resource="http://purl.org/dc/dcmitype/StillImage" />
      </cc:Work>
    </rdf:RDF>
  </metadata>
  <defs
     id="defs10" />
  <path
     id="path2"
     fill="#2F80ED"
     d="M0 4C0 1.79086 1.79086 0 4 0H10C12.2091 0 14 1.79086 14 4V25C14 27.2091 12.2091 29 10 29H4C1.79086 29 0 27.2091 0 25V4Z" />
  <path
     id="path4"
     fill="#2F80ED"
     d="M18 4C18 1.79086 19.7909 0 22 0H28C30.2091 0 32 1.79086 32 4V14C32 16.2091 30.2091 18 28 18H22C19.7909 18 18 16.2091 18 14V4Z" />
</svg>
